<svg xmlns="http://www.w3.org/2000/svg" width="85.487" height="85.063" viewBox="0 0 85.487 85.063">
  <g id="abipem" transform="translate(-2784 -1923.899)">
    <path id="Path_800" data-name="Path 800" d="M642.242,534.648" transform="translate(2186.073 1389.251)" fill="none" stroke="#f0f" stroke-miterlimit="10" stroke-width="1"/>
    <g id="Group_649" data-name="Group 649" transform="translate(2793.22 1932.499)">
      <path id="Path_799" data-name="Path 799" d="M599.723,567.348A20.469,20.469,0,1,0,577.37,547.2h8.359a12.117,12.117,0,1,1,8.654,11.374Z" transform="translate(-577.368 -526.12)" fill="none" stroke="#164a8e" stroke-miterlimit="10" stroke-width="1"/>
      <path id="Path_801" data-name="Path 801" d="M645.458,537.035a9.609,9.609,0,1,0-13.431,8.816c.039.4.061.8.061,1.212a12.116,12.116,0,1,1-12.116-12.116l-4.328-7.9a20.474,20.474,0,1,0,24.8,20.013c0-.523-.028-1.039-.066-1.553A9.605,9.605,0,0,0,645.458,537.035Z" transform="translate(-579.335 -527.049)" fill="#164a8e"/>
    </g>
    <path id="Path_802" data-name="Path 802" d="M6.167-8.03H8.311L7.871-9.655q-.323-1.234-.441-1.9a10.153,10.153,0,0,1-.147-1.253H7.2a10.152,10.152,0,0,1-.147,1.253q-.118.666-.441,1.9ZM-.668-2.821,4.444-17.156h5.738L15.2-2.821H9.653l-.46-1.8H5.305l-.441,1.8ZM20.826-8.657v2.291h.862a2.021,2.021,0,0,0,1.19-.3.981.981,0,0,0,.416-.847.978.978,0,0,0-.416-.852,2.046,2.046,0,0,0-1.19-.294Zm0-5.092v2.007H21.5A1.512,1.512,0,0,0,22.456-12a.9.9,0,0,0,.328-.749.885.885,0,0,0-.328-.744,1.534,1.534,0,0,0-.955-.255ZM15.988-2.821V-17.156h6.864a5.2,5.2,0,0,1,3.437,1.033,3.544,3.544,0,0,1,1.234,2.874,3.169,3.169,0,0,1-.583,1.954,2.7,2.7,0,0,1-1.65,1.013,3.746,3.746,0,0,1,2.174,1.146,3.38,3.38,0,0,1,.715,2.262,3.558,3.558,0,0,1-1.356,3.031,6.559,6.559,0,0,1-3.99,1.023Zm14.14,0V-17.156h5.239V-2.821Zm8.02,0V-17.156h6.159A7.365,7.365,0,0,1,49.061-15.9a4.89,4.89,0,0,1,1.5,3.976,4.652,4.652,0,0,1-1.351,3.706,6.47,6.47,0,0,1-4.289,1.17H43.308v4.23Zm5.18-10.35v2.389h.8a1.786,1.786,0,0,0,1.126-.308,1.051,1.051,0,0,0,.392-.876,1.067,1.067,0,0,0-.4-.886,1.754,1.754,0,0,0-1.116-.318Zm9.019,10.35V-17.156h9.586v3.887H57.4v1.381h4.113v3.672H57.4v1.508h4.651v3.887Zm24.892,0L76.612-8.5q-.059-.656-.118-1.307t-.1-1.307q-.088.617-.25,1.307t-.4,1.474L74.1-2.821H71.04L69.395-8.334q-.245-.783-.4-1.474t-.245-1.307q-.049.666-.1,1.312t-.113,1.3l-.627,5.679H62.854L65.3-17.156h5.317l1.018,3.545.147.5a21.9,21.9,0,0,1,.793,3.692h.088q.118-.911.353-1.939t.627-2.311l1.067-3.486h5.307L82.291-2.821Z" transform="translate(2785.59 2001.172)" fill="#164a8e"/>
    <path id="Path_803" data-name="Path 803" d="M-50.267-1.918h.832l-.306-.681q-.027-.065-.055-.15t-.057-.189q-.024.1-.052.183t-.056.156Zm1.342,1.173-.339-.769h-1.183l-.347.769h-.51l1.446-3.1,1.444,3.1Zm.622-.6.388-.18a.534.534,0,0,0,.2.3.63.63,0,0,0,.375.105.48.48,0,0,0,.344-.12.422.422,0,0,0,.128-.322q0-.263-.437-.469l-.094-.045a2.109,2.109,0,0,1-.658-.436.714.714,0,0,1-.164-.476.764.764,0,0,1,.248-.592.926.926,0,0,1,.65-.226,1.1,1.1,0,0,1,.553.128.672.672,0,0,1,.308.366l-.379.2a.632.632,0,0,0-.2-.206.463.463,0,0,0-.246-.065.453.453,0,0,0-.311.1.347.347,0,0,0-.115.273q0,.269.506.5l.061.029a1.8,1.8,0,0,1,.608.4.726.726,0,0,1,.165.487.879.879,0,0,1-.267.674,1.015,1.015,0,0,1-.722.25,1.045,1.045,0,0,1-.625-.175A.82.82,0,0,1-48.3-1.343Zm2.293,0,.388-.18a.534.534,0,0,0,.2.3.63.63,0,0,0,.375.105.48.48,0,0,0,.344-.12.422.422,0,0,0,.128-.322q0-.263-.437-.469l-.094-.045a2.109,2.109,0,0,1-.658-.436.714.714,0,0,1-.164-.476.764.764,0,0,1,.248-.592.926.926,0,0,1,.65-.226,1.1,1.1,0,0,1,.553.128.672.672,0,0,1,.308.366l-.379.2a.633.633,0,0,0-.2-.206.463.463,0,0,0-.246-.065.453.453,0,0,0-.311.1.347.347,0,0,0-.115.273q0,.269.506.5l.061.029a1.8,1.8,0,0,1,.608.4.726.726,0,0,1,.165.487.879.879,0,0,1-.267.674,1.015,1.015,0,0,1-.722.25,1.045,1.045,0,0,1-.625-.175A.82.82,0,0,1-46.01-1.343Zm5.021-.889a1.136,1.136,0,0,0-.083-.43,1.116,1.116,0,0,0-.238-.363,1.052,1.052,0,0,0-.35-.242,1.059,1.059,0,0,0-.419-.085,1.071,1.071,0,0,0-.419.084,1.069,1.069,0,0,0-.354.243,1.08,1.08,0,0,0-.237.361,1.154,1.154,0,0,0-.082.432,1.133,1.133,0,0,0,.082.428,1.108,1.108,0,0,0,.237.361A1.072,1.072,0,0,0-42.5-1.2a1.068,1.068,0,0,0,.42.084,1.051,1.051,0,0,0,.415-.084,1.1,1.1,0,0,0,.354-.243,1.119,1.119,0,0,0,.238-.362A1.123,1.123,0,0,0-40.989-2.233Zm.506,0a1.535,1.535,0,0,1-.119.6,1.528,1.528,0,0,1-.348.506,1.633,1.633,0,0,1-.52.341,1.592,1.592,0,0,1-.608.118,1.614,1.614,0,0,1-.615-.119,1.585,1.585,0,0,1-.517-.34,1.521,1.521,0,0,1-.347-.5,1.542,1.542,0,0,1-.118-.6,1.552,1.552,0,0,1,.118-.6,1.537,1.537,0,0,1,.347-.508,1.582,1.582,0,0,1,.518-.339,1.633,1.633,0,0,1,.614-.116,1.62,1.62,0,0,1,.611.116,1.585,1.585,0,0,1,.517.339,1.569,1.569,0,0,1,.348.511A1.538,1.538,0,0,1-40.483-2.233Zm2.954-.773a1.5,1.5,0,0,0-.436-.263,1.34,1.34,0,0,0-.482-.088,1.065,1.065,0,0,0-.8.314,1.115,1.115,0,0,0-.307.814,1.111,1.111,0,0,0,.3.8,1,1,0,0,0,.754.314,1.373,1.373,0,0,0,.5-.094,1.6,1.6,0,0,0,.46-.284v.549a1.433,1.433,0,0,1-.426.21,1.728,1.728,0,0,1-.5.069,1.745,1.745,0,0,1-.633-.112,1.471,1.471,0,0,1-.511-.33,1.469,1.469,0,0,1-.336-.5,1.639,1.639,0,0,1-.117-.619,1.623,1.623,0,0,1,.117-.617,1.488,1.488,0,0,1,.34-.507,1.5,1.5,0,0,1,.51-.334,1.684,1.684,0,0,1,.622-.113,1.634,1.634,0,0,1,.5.077A1.758,1.758,0,0,1-37.5-3.5Zm.61,2.26V-3.732h.486V-.745Zm1.814-1.173h.832L-34.58-2.6q-.027-.065-.055-.15t-.057-.189q-.024.1-.052.183T-34.8-2.6Zm1.342,1.173-.339-.769h-1.183l-.347.769h-.51l1.446-3.1,1.444,3.1Zm3.191-2.26a1.5,1.5,0,0,0-.436-.263,1.34,1.34,0,0,0-.482-.088,1.065,1.065,0,0,0-.8.314,1.115,1.115,0,0,0-.307.814,1.111,1.111,0,0,0,.3.8,1,1,0,0,0,.754.314,1.373,1.373,0,0,0,.5-.094,1.6,1.6,0,0,0,.46-.284v.549A1.433,1.433,0,0,1-31-.735a1.728,1.728,0,0,1-.5.069,1.745,1.745,0,0,1-.633-.112,1.471,1.471,0,0,1-.511-.33,1.469,1.469,0,0,1-.336-.5,1.639,1.639,0,0,1-.117-.619,1.623,1.623,0,0,1,.117-.617,1.488,1.488,0,0,1,.34-.507,1.5,1.5,0,0,1,.51-.334,1.684,1.684,0,0,1,.622-.113,1.634,1.634,0,0,1,.5.077,1.758,1.758,0,0,1,.463.232ZM-32.027.056V-.16q.165.039.286.057a1.407,1.407,0,0,0,.208.018.283.283,0,0,0,.157-.035.117.117,0,0,0,.051-.1.122.122,0,0,0-.064-.115A.448.448,0,0,0-31.6-.374l-.041,0-.043,0V-.745h.175V-.57h.035a.549.549,0,0,1,.342.089.317.317,0,0,1,.113.266.3.3,0,0,1-.125.26.608.608,0,0,1-.36.091,1.634,1.634,0,0,1-.233-.019A2.941,2.941,0,0,1-32.027.056Zm2.687-1.975h.832l-.306-.681q-.027-.065-.055-.15t-.057-.189q-.024.1-.052.183t-.056.156ZM-28-.745l-.339-.769H-29.52l-.347.769h-.51l1.446-3.1,1.444,3.1Zm-.335-3.788a.6.6,0,0,1-.142.313.339.339,0,0,1-.256.111.462.462,0,0,1-.053,0l-.055-.009-.253-.065-.049-.008-.029,0a.175.175,0,0,0-.112.033.21.21,0,0,0-.063.106h-.184a.7.7,0,0,1,.142-.321.314.314,0,0,1,.244-.105.486.486,0,0,1,.062,0,.479.479,0,0,1,.062.012l.239.063.037.006.059,0a.16.16,0,0,0,.106-.036.2.2,0,0,0,.061-.1Zm3.684,2.3a1.136,1.136,0,0,0-.083-.43,1.116,1.116,0,0,0-.238-.363,1.052,1.052,0,0,0-.35-.242,1.059,1.059,0,0,0-.419-.085,1.071,1.071,0,0,0-.419.084,1.069,1.069,0,0,0-.354.243,1.08,1.08,0,0,0-.237.361,1.154,1.154,0,0,0-.082.432,1.133,1.133,0,0,0,.082.428,1.108,1.108,0,0,0,.237.361,1.072,1.072,0,0,0,.353.243,1.068,1.068,0,0,0,.42.084,1.051,1.051,0,0,0,.415-.084,1.1,1.1,0,0,0,.354-.243,1.119,1.119,0,0,0,.238-.362A1.123,1.123,0,0,0-24.649-2.233Zm.506,0a1.535,1.535,0,0,1-.119.6,1.528,1.528,0,0,1-.348.506,1.633,1.633,0,0,1-.52.341,1.592,1.592,0,0,1-.608.118,1.614,1.614,0,0,1-.615-.119,1.585,1.585,0,0,1-.517-.34,1.521,1.521,0,0,1-.347-.5,1.542,1.542,0,0,1-.118-.6,1.552,1.552,0,0,1,.118-.6,1.537,1.537,0,0,1,.347-.508,1.582,1.582,0,0,1,.518-.339,1.633,1.633,0,0,1,.614-.116,1.62,1.62,0,0,1,.611.116,1.585,1.585,0,0,1,.517.339,1.569,1.569,0,0,1,.348.511A1.538,1.538,0,0,1-24.143-2.233Zm2.293-.239h.186a.935.935,0,0,0,.491-.095.354.354,0,0,0,.144-.319.4.4,0,0,0-.133-.344.9.9,0,0,0-.5-.1h-.186Zm0,1.32h.167a2.609,2.609,0,0,0,.381-.02.485.485,0,0,0,.2-.071.394.394,0,0,0,.139-.159.494.494,0,0,0,.049-.22.5.5,0,0,0-.059-.249.413.413,0,0,0-.169-.165.591.591,0,0,0-.158-.051,1.357,1.357,0,0,0-.236-.016h-.314Zm-.475.406V-3.732h.753A2.37,2.37,0,0,1-21.1-3.7a.694.694,0,0,1,.262.114.679.679,0,0,1,.215.267.859.859,0,0,1,.077.365.687.687,0,0,1-.11.4.574.574,0,0,1-.32.223.615.615,0,0,1,.411.238.8.8,0,0,1,.15.5.946.946,0,0,1-.063.345.776.776,0,0,1-.18.277.672.672,0,0,1-.3.175,2.531,2.531,0,0,1-.61.051Zm2.893-1.714h.088a.979.979,0,0,0,.512-.09.364.364,0,0,0,.126-.318.406.406,0,0,0-.136-.348.892.892,0,0,0-.5-.1h-.088Zm-.031.377V-.745h-.455V-3.732h.677a2.123,2.123,0,0,1,.462.039.725.725,0,0,1,.281.129.71.71,0,0,1,.214.279.921.921,0,0,1,.075.375.838.838,0,0,1-.173.562.763.763,0,0,1-.512.244l1.028,1.359h-.549l-.993-1.336Zm2.515.163h.832l-.306-.681q-.027-.065-.055-.15t-.057-.189q-.024.1-.052.183t-.056.156Zm1.342,1.173-.339-.769h-1.183l-.347.769h-.51l1.446-3.1,1.444,3.1Zm.622-.6.388-.18a.534.534,0,0,0,.2.3.63.63,0,0,0,.375.105.48.48,0,0,0,.344-.12.422.422,0,0,0,.128-.322q0-.263-.437-.469l-.094-.045a2.109,2.109,0,0,1-.658-.436.714.714,0,0,1-.164-.476.764.764,0,0,1,.248-.592A.926.926,0,0,1-14-3.8a1.1,1.1,0,0,1,.553.128.672.672,0,0,1,.308.366l-.379.2a.632.632,0,0,0-.2-.206.463.463,0,0,0-.246-.065.453.453,0,0,0-.311.1.347.347,0,0,0-.115.273q0,.269.506.5l.061.029a1.8,1.8,0,0,1,.608.4.726.726,0,0,1,.165.487.879.879,0,0,1-.267.674,1.015,1.015,0,0,1-.722.25,1.045,1.045,0,0,1-.625-.175A.82.82,0,0,1-14.983-1.343Zm2.473.6V-3.732h.486V-.745Zm1.183,0V-3.732h.486V-1.18h1.085v.435Zm1.965,0V-3.732H-7.7v.412H-8.877v.749H-7.7v.426H-8.877v.965H-7.7v.435Zm2.232,0V-3.732h.486V-.745Zm1.669-1.714h.088a.979.979,0,0,0,.512-.09.364.364,0,0,0,.126-.318.406.406,0,0,0-.136-.348.892.892,0,0,0-.5-.1h-.088Zm-.031.377V-.745h-.455V-3.732h.677a2.123,2.123,0,0,1,.462.039.725.725,0,0,1,.281.129.71.71,0,0,1,.214.279.921.921,0,0,1,.075.375.838.838,0,0,1-.173.562.763.763,0,0,1-.512.244L-3.9-.745h-.549l-.993-1.336Zm2.515.163h.832L-2.451-2.6q-.027-.065-.055-.15t-.057-.189q-.024.1-.052.183t-.056.156ZM-1.635-.745l-.339-.769H-3.157L-3.5-.745h-.51l1.446-3.1,1.444,3.1ZM.9-1.184h.408a2.107,2.107,0,0,0,.5-.045A.737.737,0,0,0,2.11-1.38a.9.9,0,0,0,.254-.36,1.363,1.363,0,0,0,.085-.5,1.363,1.363,0,0,0-.085-.5A.9.9,0,0,0,2.11-3.1a.752.752,0,0,0-.3-.151A2.449,2.449,0,0,0,1.256-3.3H.9ZM.419-.745V-3.732h.655a4.277,4.277,0,0,1,.9.064,1.214,1.214,0,0,1,.456.215,1.249,1.249,0,0,1,.393.508,1.774,1.774,0,0,1,.134.708,1.751,1.751,0,0,1-.134.7,1.268,1.268,0,0,1-.393.507,1.219,1.219,0,0,1-.446.215A3.412,3.412,0,0,1,1.2-.745H.419Zm3.093,0V-3.732H5.179v.412H4v.749H5.179v.426H4v.965H5.179v.435ZM7-.745V-3.732H7.49V-.745Zm1.183,0v-3.1l1.9,1.826q.078.078.157.165t.167.2V-3.732h.449v3.1L8.922-2.488q-.078-.075-.15-.159t-.138-.175V-.745Zm3.184-.6.388-.18a.534.534,0,0,0,.2.3.63.63,0,0,0,.375.105.48.48,0,0,0,.344-.12.422.422,0,0,0,.128-.322q0-.263-.437-.469l-.094-.045A2.109,2.109,0,0,1,11.62-2.5a.714.714,0,0,1-.164-.476.764.764,0,0,1,.248-.592.926.926,0,0,1,.65-.226,1.1,1.1,0,0,1,.553.128.672.672,0,0,1,.308.366l-.379.2a.632.632,0,0,0-.2-.206.463.463,0,0,0-.246-.065.453.453,0,0,0-.311.1.347.347,0,0,0-.115.273q0,.269.506.5l.061.029a1.8,1.8,0,0,1,.608.4.726.726,0,0,1,.165.487.879.879,0,0,1-.267.674,1.015,1.015,0,0,1-.722.25,1.045,1.045,0,0,1-.625-.175A.82.82,0,0,1,11.372-1.343ZM14.8-3.32V-.745h-.486V-3.32h-.794v-.412h2.069v.412ZM15.97-.745V-3.732h.486V-.745ZM18.118-3.32V-.745h-.486V-3.32h-.794v-.412h2.069v.412Zm1.149-.412h.479v1.814a.869.869,0,0,0,.187.607.721.721,0,0,0,.558.2.718.718,0,0,0,.556-.2.869.869,0,0,0,.187-.607V-3.732h.486v1.858a1.22,1.22,0,0,1-.306.907,1.266,1.266,0,0,1-.922.3,1.261,1.261,0,0,1-.92-.3,1.224,1.224,0,0,1-.3-.908ZM22.4-.745V-3.732h.486V-.745Zm3.58-2.26a1.5,1.5,0,0,0-.436-.263,1.34,1.34,0,0,0-.482-.088,1.065,1.065,0,0,0-.8.314,1.115,1.115,0,0,0-.307.814,1.111,1.111,0,0,0,.3.8,1,1,0,0,0,.754.314,1.373,1.373,0,0,0,.5-.094,1.6,1.6,0,0,0,.46-.284v.549a1.433,1.433,0,0,1-.426.21,1.728,1.728,0,0,1-.5.069,1.745,1.745,0,0,1-.633-.112,1.471,1.471,0,0,1-.511-.33,1.469,1.469,0,0,1-.336-.5,1.639,1.639,0,0,1-.117-.619,1.623,1.623,0,0,1,.117-.617,1.488,1.488,0,0,1,.34-.507,1.5,1.5,0,0,1,.51-.334,1.684,1.684,0,0,1,.622-.113,1.634,1.634,0,0,1,.5.077A1.758,1.758,0,0,1,26-3.5ZM24.522.056V-.16q.165.039.286.057a1.407,1.407,0,0,0,.208.018.283.283,0,0,0,.157-.035.117.117,0,0,0,.051-.1.122.122,0,0,0-.064-.115.448.448,0,0,0-.207-.036l-.041,0-.043,0V-.745h.175V-.57h.035a.549.549,0,0,1,.342.089.317.317,0,0,1,.113.266.3.3,0,0,1-.125.26.608.608,0,0,1-.36.091,1.633,1.633,0,0,1-.233-.019A2.941,2.941,0,0,1,24.522.056Zm4.612-2.289a1.136,1.136,0,0,0-.083-.43,1.116,1.116,0,0,0-.238-.363,1.052,1.052,0,0,0-.35-.242,1.059,1.059,0,0,0-.419-.085,1.071,1.071,0,0,0-.419.084,1.069,1.069,0,0,0-.354.243,1.08,1.08,0,0,0-.237.361,1.154,1.154,0,0,0-.082.432,1.133,1.133,0,0,0,.082.428,1.108,1.108,0,0,0,.237.361,1.072,1.072,0,0,0,.353.243,1.068,1.068,0,0,0,.42.084A1.051,1.051,0,0,0,28.46-1.2a1.1,1.1,0,0,0,.354-.243,1.119,1.119,0,0,0,.238-.362A1.123,1.123,0,0,0,29.135-2.233Zm.506,0a1.536,1.536,0,0,1-.119.6,1.528,1.528,0,0,1-.348.506,1.633,1.633,0,0,1-.52.341,1.592,1.592,0,0,1-.608.118,1.614,1.614,0,0,1-.615-.119,1.585,1.585,0,0,1-.517-.34,1.521,1.521,0,0,1-.347-.5,1.542,1.542,0,0,1-.118-.6,1.552,1.552,0,0,1,.118-.6,1.537,1.537,0,0,1,.347-.508,1.582,1.582,0,0,1,.518-.339,1.633,1.633,0,0,1,.614-.116,1.62,1.62,0,0,1,.611.116,1.585,1.585,0,0,1,.517.339,1.569,1.569,0,0,1,.348.511A1.538,1.538,0,0,1,29.64-2.233Zm-1-2.3a.6.6,0,0,1-.142.313.339.339,0,0,1-.256.111.462.462,0,0,1-.053,0l-.055-.009-.253-.065L27.835-4.2l-.029,0a.175.175,0,0,0-.112.033.21.21,0,0,0-.063.106h-.184a.7.7,0,0,1,.142-.321.314.314,0,0,1,.244-.105.486.486,0,0,1,.062,0,.479.479,0,0,1,.062.012l.239.063.037.006.059,0a.16.16,0,0,0,.106-.036.2.2,0,0,0,.061-.1ZM30.2-.745V-3.732h1.667v.412H30.683v.749h1.181v.426H30.683v.965h1.181v.435Zm2.052-.6.388-.18a.534.534,0,0,0,.2.3.63.63,0,0,0,.375.105.48.48,0,0,0,.344-.12.422.422,0,0,0,.127-.322q0-.263-.437-.469l-.094-.045A2.109,2.109,0,0,1,32.5-2.5a.714.714,0,0,1-.164-.476.764.764,0,0,1,.248-.592.926.926,0,0,1,.65-.226,1.1,1.1,0,0,1,.553.128.672.672,0,0,1,.308.366l-.379.2a.632.632,0,0,0-.2-.206.463.463,0,0,0-.246-.065.453.453,0,0,0-.311.1.347.347,0,0,0-.115.273q0,.269.506.5l.061.029a1.8,1.8,0,0,1,.608.4.726.726,0,0,1,.165.487.879.879,0,0,1-.267.674,1.015,1.015,0,0,1-.722.25,1.045,1.045,0,0,1-.625-.175A.82.82,0,0,1,32.25-1.343ZM-49.886,3.83h.408a2.107,2.107,0,0,0,.5-.045.737.737,0,0,0,.293-.151.9.9,0,0,0,.254-.36,1.363,1.363,0,0,0,.085-.5,1.363,1.363,0,0,0-.085-.5.9.9,0,0,0-.254-.36.752.752,0,0,0-.3-.151,2.449,2.449,0,0,0-.552-.045h-.351Zm-.486.439V1.282h.655a4.277,4.277,0,0,1,.9.064,1.214,1.214,0,0,1,.456.215,1.249,1.249,0,0,1,.393.508,1.774,1.774,0,0,1,.134.708,1.751,1.751,0,0,1-.134.7,1.268,1.268,0,0,1-.393.507,1.219,1.219,0,0,1-.446.215,3.412,3.412,0,0,1-.778.064h-.785Zm3.093,0V1.282h1.667v.412h-1.181v.749h1.181v.426h-1.181v.965h1.181v.435Zm3.97-1.738h.124a1.1,1.1,0,0,0,.539-.088.342.342,0,0,0,.135-.31.378.378,0,0,0-.144-.337,1.009,1.009,0,0,0-.529-.1h-.124Zm-.031.4v1.34h-.455V1.282h.734a2.331,2.331,0,0,1,.48.036.746.746,0,0,1,.268.117.7.7,0,0,1,.22.281.935.935,0,0,1,.08.389.956.956,0,0,1-.08.392.677.677,0,0,1-.22.282.733.733,0,0,1-.268.116,2.4,2.4,0,0,1-.48.035h-.279Zm2.254-.373H-41a.979.979,0,0,0,.512-.09.364.364,0,0,0,.126-.318.406.406,0,0,0-.136-.348.892.892,0,0,0-.5-.1h-.088Zm-.031.377V4.268h-.455V1.282h.677a2.123,2.123,0,0,1,.462.039.725.725,0,0,1,.281.129.71.71,0,0,1,.214.279.921.921,0,0,1,.075.375.838.838,0,0,1-.173.562.763.763,0,0,1-.512.244l1.028,1.359h-.549l-.993-1.336Zm1.885,1.336V1.282h1.667v.412h-1.181v.749h1.181v.426h-1.181v.965h1.181v.435Zm3.172.116-1.332-3.1h.5l.669,1.591q.059.139.1.256a2.1,2.1,0,0,1,.061.223q.027-.112.067-.233t.1-.247l.667-1.591h.5Zm1.642-.116V1.282h.486V4.268Zm1.669-.439h.408a2.107,2.107,0,0,0,.5-.045.737.737,0,0,0,.293-.151.9.9,0,0,0,.254-.36,1.363,1.363,0,0,0,.085-.5,1.363,1.363,0,0,0-.085-.5.9.9,0,0,0-.254-.36.752.752,0,0,0-.3-.151,2.449,2.449,0,0,0-.552-.045h-.351Zm-.486.439V1.282h.655a4.277,4.277,0,0,1,.9.064,1.214,1.214,0,0,1,.456.215,1.249,1.249,0,0,1,.393.508,1.774,1.774,0,0,1,.134.708,1.751,1.751,0,0,1-.134.7,1.268,1.268,0,0,1-.393.507,1.219,1.219,0,0,1-.446.215,3.412,3.412,0,0,1-.778.064h-.785Zm3.093,0V1.282h1.667v.412h-1.181v.749h1.181v.426h-1.181v.965h1.181v.435Zm.235-3.28.394-.555h.424l.394.555h-.251L-29.3.668l-.355.32Zm1.989,3.28v-3.1l1.9,1.826q.078.078.157.165t.167.2V1.282h.449v3.1l-1.936-1.858q-.078-.075-.15-.159t-.138-.175V4.268Zm5.753-2.26a1.5,1.5,0,0,0-.436-.263,1.34,1.34,0,0,0-.482-.088,1.065,1.065,0,0,0-.8.314,1.115,1.115,0,0,0-.307.814,1.111,1.111,0,0,0,.3.8,1,1,0,0,0,.754.314,1.373,1.373,0,0,0,.5-.094,1.6,1.6,0,0,0,.46-.284v.549a1.433,1.433,0,0,1-.426.21,1.728,1.728,0,0,1-.5.069,1.745,1.745,0,0,1-.633-.112,1.471,1.471,0,0,1-.511-.33,1.469,1.469,0,0,1-.336-.5,1.639,1.639,0,0,1-.117-.619,1.623,1.623,0,0,1,.117-.617,1.488,1.488,0,0,1,.34-.507,1.5,1.5,0,0,1,.51-.334A1.684,1.684,0,0,1-23.1,1.21a1.634,1.634,0,0,1,.5.077,1.758,1.758,0,0,1,.463.232Zm.61,2.26V1.282h.486V4.268ZM-19.74,3.1h.832l-.306-.681q-.027-.065-.055-.15t-.057-.189q-.024.1-.052.183t-.056.156ZM-18.4,4.268l-.339-.769H-19.92l-.347.769h-.51l1.446-3.1,1.444,3.1Zm2.054,0V1.282h1.667v.412h-1.181v.749h1.181v.426h-1.181v.965h1.181v.435Zm2.052-.6.388-.18a.534.534,0,0,0,.2.3.63.63,0,0,0,.375.105.48.48,0,0,0,.344-.12.422.422,0,0,0,.128-.322q0-.263-.437-.469l-.094-.045a2.109,2.109,0,0,1-.658-.436.714.714,0,0,1-.164-.476.764.764,0,0,1,.248-.592.926.926,0,0,1,.65-.226,1.1,1.1,0,0,1,.553.128.672.672,0,0,1,.308.366l-.379.2a.632.632,0,0,0-.2-.206.463.463,0,0,0-.246-.065.453.453,0,0,0-.311.1.347.347,0,0,0-.115.273q0,.269.506.5l.061.029a1.8,1.8,0,0,1,.608.4.726.726,0,0,1,.165.487.879.879,0,0,1-.267.674,1.015,1.015,0,0,1-.722.25,1.045,1.045,0,0,1-.625-.175A.82.82,0,0,1-14.292,3.67Zm3.429-1.977V4.268h-.486V1.694h-.794V1.282h2.069v.412Zm1.791,1.4h.832l-.306-.681q-.027-.065-.055-.15t-.057-.189q-.024.1-.052.183t-.056.156Zm1.342,1.173L-8.067,3.5H-9.251l-.347.769h-.51l1.446-3.1,1.444,3.1ZM-6.45,3.83h.408a2.107,2.107,0,0,0,.5-.045.737.737,0,0,0,.293-.151.9.9,0,0,0,.254-.36,1.363,1.363,0,0,0,.085-.5,1.363,1.363,0,0,0-.085-.5.9.9,0,0,0-.254-.36.752.752,0,0,0-.3-.151A2.449,2.449,0,0,0-6.1,1.716H-6.45Zm-.486.439V1.282h.655a4.277,4.277,0,0,1,.9.064,1.214,1.214,0,0,1,.456.215,1.249,1.249,0,0,1,.393.508,1.774,1.774,0,0,1,.134.708,1.751,1.751,0,0,1-.134.7,1.268,1.268,0,0,1-.393.507,1.219,1.219,0,0,1-.446.215,3.412,3.412,0,0,1-.778.064h-.785Zm3.08-2.987h.479V3.1a.869.869,0,0,0,.187.607.721.721,0,0,0,.558.2.718.718,0,0,0,.556-.2A.869.869,0,0,0-1.888,3.1V1.282H-1.4V3.14a1.22,1.22,0,0,1-.306.907,1.266,1.266,0,0,1-.922.3,1.261,1.261,0,0,1-.92-.3,1.224,1.224,0,0,1-.3-.908ZM-.1,3.1H.729L.423,2.414Q.4,2.349.368,2.264T.311,2.075q-.024.1-.052.183T.2,2.414ZM1.239,4.268.9,3.5H-.283l-.347.769h-.51l1.446-3.1,1.444,3.1Zm.8,0V1.282h.486V4.268Zm1.012-.6.388-.18a.534.534,0,0,0,.2.3.63.63,0,0,0,.375.105.48.48,0,0,0,.344-.12.422.422,0,0,0,.128-.322q0-.263-.437-.469l-.094-.045A2.109,2.109,0,0,1,3.3,2.509a.714.714,0,0,1-.164-.476.764.764,0,0,1,.248-.592.926.926,0,0,1,.65-.226,1.1,1.1,0,0,1,.553.128.672.672,0,0,1,.308.366l-.379.2a.632.632,0,0,0-.2-.206.463.463,0,0,0-.246-.065.453.453,0,0,0-.311.1.347.347,0,0,0-.115.273q0,.269.506.5l.061.029a1.8,1.8,0,0,1,.608.4.726.726,0,0,1,.165.487A.879.879,0,0,1,4.72,4.1,1.015,1.015,0,0,1,4,4.348a1.045,1.045,0,0,1-.625-.175A.82.82,0,0,1,3.053,3.67Zm3.725.6V1.282H8.445v.412H7.263v.749H8.445v.426H7.263v.965H8.445v.435ZM12.7,2.793q-.008-.035-.027-.192-.016-.131-.029-.216a1.5,1.5,0,0,1-.052.2,1.738,1.738,0,0,1-.085.208l-.781,1.591-.781-1.624q-.049-.1-.085-.194T10.8,2.385a1.862,1.862,0,0,1-.015.2,2.108,2.108,0,0,1-.04.215l-.32,1.471H9.975l.706-3.113.881,1.885q.02.045.062.149t.1.257a3.27,3.27,0,0,1,.135-.326l.037-.082.861-1.883.722,3.113h-.451Zm1.157-1.512h.479V3.1a.869.869,0,0,0,.187.607.866.866,0,0,0,1.114,0,.869.869,0,0,0,.187-.607V1.282h.486V3.14A1.22,1.22,0,0,1,16,4.047a1.266,1.266,0,0,1-.922.3,1.261,1.261,0,0,1-.92-.3,1.224,1.224,0,0,1-.3-.908Zm3.121,2.987v-3.1l1.9,1.826q.078.078.157.165t.167.2V1.282h.449v3.1L17.71,2.526q-.078-.075-.15-.159t-.138-.175V4.268Zm3.364,0V1.282h.486V4.268Zm3.58-2.26a1.5,1.5,0,0,0-.436-.263A1.34,1.34,0,0,0,23,1.657a1.065,1.065,0,0,0-.8.314,1.115,1.115,0,0,0-.307.814,1.111,1.111,0,0,0,.3.8,1,1,0,0,0,.754.314,1.373,1.373,0,0,0,.5-.094,1.6,1.6,0,0,0,.46-.284v.549a1.433,1.433,0,0,1-.426.21,1.84,1.84,0,0,1-1.133-.043A1.491,1.491,0,0,1,21.51,3.4a1.687,1.687,0,0,1,0-1.236,1.53,1.53,0,0,1,.85-.84,1.684,1.684,0,0,1,.622-.113,1.634,1.634,0,0,1,.5.077,1.758,1.758,0,0,1,.463.232Zm.61,2.26V1.282h.486V4.268ZM26.2,2.53h.124a1.1,1.1,0,0,0,.539-.088A.342.342,0,0,0,27,2.132a.378.378,0,0,0-.144-.337,1.009,1.009,0,0,0-.529-.1H26.2Zm-.031.4v1.34h-.455V1.282h.734a2.331,2.331,0,0,1,.48.036.746.746,0,0,1,.268.117.7.7,0,0,1,.22.281.935.935,0,0,1,.08.389.956.956,0,0,1-.08.392.677.677,0,0,1-.22.282.733.733,0,0,1-.268.116,2.4,2.4,0,0,1-.48.035h-.279Zm2.4.167H29.4l-.306-.681q-.027-.065-.055-.15t-.057-.189q-.024.1-.052.183t-.056.156ZM29.91,4.268,29.571,3.5H28.388l-.347.769h-.51l1.446-3.1,1.444,3.1Zm.8,0V1.282H31.2V4.268Zm1.012-.6.388-.18a.534.534,0,0,0,.2.3.63.63,0,0,0,.375.105.48.48,0,0,0,.344-.12.422.422,0,0,0,.128-.322q0-.263-.437-.469l-.094-.045a2.109,2.109,0,0,1-.658-.436.714.714,0,0,1-.164-.476.764.764,0,0,1,.248-.592.926.926,0,0,1,.65-.226,1.1,1.1,0,0,1,.553.128.672.672,0,0,1,.308.366l-.379.2a.632.632,0,0,0-.2-.206.463.463,0,0,0-.246-.065.453.453,0,0,0-.311.1.347.347,0,0,0-.115.273q0,.269.506.5l.061.029a1.8,1.8,0,0,1,.608.4.726.726,0,0,1,.165.487.879.879,0,0,1-.267.674,1.015,1.015,0,0,1-.722.25,1.045,1.045,0,0,1-.625-.175A.82.82,0,0,1,31.723,3.67Z" transform="translate(2835.304 2004.573)" fill="#164a8e"/>
  </g>
</svg>
