<svg xmlns="http://www.w3.org/2000/svg" width="66.44" height="51.251" viewBox="0 0 66.44 51.251">
  <g id="diarioOficial" transform="translate(-2448.425 -1934.515)">
    <g id="Group_475" data-name="Group 475" transform="translate(2449.5 1935.421)">
      <path id="Path_570" data-name="Path 570" d="M62.19,24.149,25.129.594,8,11.671s-5.112,3.785-6.192,5.843C.276,20.431-.7,24.758,3.537,28.625L35.8,48.8s-.776-6.988,7.39-12.092S62.19,24.149,62.19,24.149Z" transform="translate(0 0)" fill="none" stroke="#007baa" stroke-linecap="round" stroke-linejoin="round" stroke-miterlimit="10" stroke-width="3"/>
      <line id="Line_184" data-name="Line 184" x2="25.047" y2="15.704" transform="translate(25.286 8.289)" fill="none" stroke="#007baa" stroke-linecap="round" stroke-miterlimit="10" stroke-width="3"/>
      <line id="Line_185" data-name="Line 185" x2="25.047" y2="15.704" transform="translate(8.797 20.349)" fill="none" stroke="#007baa" stroke-linecap="round" stroke-miterlimit="10" stroke-width="3"/>
      <line id="Line_186" data-name="Line 186" x2="11.762" y2="7.374" transform="translate(25.695 25.176)" fill="none" stroke="#007baa" stroke-linecap="round" stroke-miterlimit="10" stroke-width="3"/>
      <line id="Line_187" data-name="Line 187" x2="12.524" y2="7.852" transform="translate(29.482 22.226)" fill="none" stroke="#007baa" stroke-linecap="round" stroke-miterlimit="10" stroke-width="3"/>
      <line id="Line_188" data-name="Line 188" x2="12.524" y2="7.852" transform="translate(33.844 19.784)" fill="none" stroke="#007baa" stroke-linecap="round" stroke-miterlimit="10" stroke-width="3"/>
      <path id="Path_571" data-name="Path 571" d="M65.436,50.99l10.5,6.389-8.224,5.3L57.659,56.6Z" transform="translate(-44.595 -39.319)" fill="none" stroke="#007baa" stroke-linecap="round" stroke-linejoin="round" stroke-miterlimit="10" stroke-width="3"/>
      <path id="Path_572" data-name="Path 572" d="M179.268,153.248l18.294-11.464s2.277-1.178,2.434.628a5.474,5.474,0,0,1-2.591,4.915l-17.2,10.631s-.786.279-1.685.557c-4.557,1.406-5.068-5.942.821-9.665" transform="translate(-136.159 -109.862)" fill="none" stroke="#007baa" stroke-linecap="round" stroke-linejoin="round" stroke-miterlimit="10" stroke-width="3"/>
    </g>
  </g>
</svg>
