<svg xmlns="http://www.w3.org/2000/svg" width="66.238" height="31.72" viewBox="0 0 66.238 31.72">
  <g id="ingaDigital" transform="translate(-283.5 -530)">
    <path id="Path_409" data-name="Path 409" d="M343.23,544.078v2.929c-.019.065-.28.476-.457.476h-4.189v-2.929a.623.623,0,0,1,.55-.476Zm-52.776,8.993h-6.9V537.79l5.178.019a2.943,2.943,0,0,0,1.726-.746Zm33.035-17.278v11.484h-4.646V535.971c.019-.112.187-.177.3-.177ZM344.909,530a1.977,1.977,0,0,0-.578,1.222v3.293a.989.989,0,0,0,.83.84h3.312a2.254,2.254,0,0,0,1.269-.56l-.019,18.276H336.671c-.224-.028-.457-.093-.69-.112a5.282,5.282,0,0,1-3.676-2.687c-.075-.177-.187-.4-.233-.56-.065-.3-.187-.849-.187-.886v-6.615c.047-.289.121-.634.187-.924.485-1.885,2.733-2.64,4.114-2.64h6.605v-2.883h-9.5V530Zm-14.5,0v27.018c-.019.3-.084.569-.112.84a7.987,7.987,0,0,1-.252.914c-.69,1.95-2.92,2.7-4.375,2.855-.252.028-.756.093-.821.093H313.18v-5.765h10.309v-2.883h-7.566c-1.194-.14-2.948-.252-3.685-1.931a3.146,3.146,0,0,1-.224-.728,7.353,7.353,0,0,1-.121-.952V534.245l.075-.634a4.383,4.383,0,0,1,2.416-3.2c.112-.047.252-.112.383-.159a4.069,4.069,0,0,1,.718-.187,4.29,4.29,0,0,1,.625-.065Zm-24.639,0a4.577,4.577,0,0,1,4.674,4.543v18.528h-6.922V536c-.047-.047-.168-.233-.261-.233h-4.441v17.306h-6.894V530Z" transform="translate(-0.003)" fill-rule="evenodd"/>
    <path id="Path_410" data-name="Path 410" d="M306.441,557.181v1.838h-1.194v-1.838Zm-20.553,0v3.387h-1.166v-3.387Zm23.445-1.157v4.562h1.94a.539.539,0,0,1,.429.41v.728h-2.594a1.03,1.03,0,0,1-.924-1.091v-4.609Zm-2.752,0a1.01,1.01,0,0,1,1.008.886v4.814H306.46v-1.549h-1.213v1.549H304.09v-4.8a.739.739,0,0,0,.047-.224c.047-.429.625-.7.942-.681Zm-3.088,0v1.138h-1.175v4.562h-1.166v-4.562h-1.176v-1.138Zm-4.114,0v1.138H298.2v3.424h1.175v1.138h-3.5v-1.138h1.148v-3.424H295.88v-1.138Zm-4.1,0v1.138h-2.37v3.424h1.213v-1.539h1.157v2.677h-2.6a1.017,1.017,0,0,1-.924-.952v-3.8a.319.319,0,0,0,.028-.159c0-.448.616-.84.989-.793Zm-4.124,0v1.138h-1.175v3.424h1.175v1.138h-3.517v-1.138h1.176v-3.424h-1.176v-1.138Zm-5.131,0a1.047,1.047,0,0,1,1.036,1.138v3.405a1.057,1.057,0,0,1-.989,1.157h-2.528v-5.7Zm63.43-25.842c.028.028.075.028.075.093v3.2a1.246,1.246,0,0,1-1.176,1.12h-3.107c-.019-.028-.065-.028-.112-.075v-3.377a1.216,1.216,0,0,1,1.036-.961Zm-59.241-.112c.047,0,.233.047.233.14v5.2a.459.459,0,0,0-.047.187c0,.588-.989,1.427-1.539,1.427H283.64c-.047-.019-.14-.112-.14-.159v-5.019a.909.909,0,0,0,.019-.224,1.954,1.954,0,0,1,1.549-1.521.616.616,0,0,0,.224-.028Z" transform="translate(0 -0.005)" fill="#ff660a" fill-rule="evenodd"/>
  </g>
</svg>
