<svg xmlns="http://www.w3.org/2000/svg" width="23.846" height="30.441" viewBox="0 0 23.846 30.441"><defs><style>.a{fill:#e8e8e8;}.b{fill:#fb3449;}.c{fill:#a4a9ad;}.d{fill:#d1d3d3;}</style></defs><g transform="translate(-32.842)"><path class="a" d="M51.615,0H32.842V30.441H56.688V5.073Z" transform="translate(0)"/><path class="b" d="M95.74,60.507c-.366-.652-1.63-.857-2.209-.949a8.791,8.791,0,0,0-1.386-.094c-.363,0-.721.015-1.074.036-.13.009-.259.02-.388.031q-.2-.2-.383-.422a14.026,14.026,0,0,1-1.936-3.079,12.151,12.151,0,0,0,.313-1.655,6.912,6.912,0,0,0-.23-3.238c-.135-.344-.5-.764-.913-.555-.479.24-.614.921-.653,1.4a4.682,4.682,0,0,0,.056,1.164,8.314,8.314,0,0,0,.291,1.118q.164.5.36,1c-.083.26-.171.515-.264.763-.216.567-.45,1.1-.674,1.623L86.3,58.4a25.547,25.547,0,0,1-1.186,2.311,12.961,12.961,0,0,0-2.7,1.268,5.9,5.9,0,0,0-1.068.864,1.88,1.88,0,0,0-.6,1.107.7.7,0,0,0,.278.616,1.163,1.163,0,0,0,.944.123,5.148,5.148,0,0,0,2.492-1.846,20.32,20.32,0,0,0,1.543-1.954l0-.005a23.356,23.356,0,0,1,3.07-.723c.5-.083,1.012-.151,1.535-.2a7.235,7.235,0,0,0,1.2.92,5.507,5.507,0,0,0,1.073.514,7.686,7.686,0,0,0,1.157.29,3.407,3.407,0,0,0,.612.034c.465-.018,1.132-.2,1.176-.76A.787.787,0,0,0,95.74,60.507ZM84.609,61.542c-.218.337-.428.641-.626.908a4.5,4.5,0,0,1-1.84,1.736,1.423,1.423,0,0,1-.564.1c-.188-.011-.374-.094-.365-.308a.9.9,0,0,1,.143-.395,2.439,2.439,0,0,1,.329-.424,5.458,5.458,0,0,1,.982-.795,11.63,11.63,0,0,1,2.076-1.033C84.7,61.4,84.653,61.473,84.609,61.542Zm2.733-8.46a3.832,3.832,0,0,1-.032-1.055,2.5,2.5,0,0,1,.1-.5c.043-.134.136-.459.284-.5.244-.069.319.455.347.6a6.639,6.639,0,0,1-.17,2.607c-.03.132-.063.261-.1.39-.058-.161-.114-.322-.165-.484A7.932,7.932,0,0,1,87.342,53.082Zm1.675,6.655a23.751,23.751,0,0,0-2.608.573,6.692,6.692,0,0,0,.65-1.06,12.913,12.913,0,0,0,1.14-2.63,12.844,12.844,0,0,0,1.823,2.732q.1.113.206.223C89.817,59.619,89.412,59.673,89.017,59.737Zm6.2,1.174c-.034.181-.421.285-.6.313a3.444,3.444,0,0,1-1.609-.155A5.155,5.155,0,0,1,92,60.6a5.992,5.992,0,0,1-.9-.67c.344-.021.693-.034,1.043-.028a8.82,8.82,0,0,1,1.052.067,3.718,3.718,0,0,1,1.9.721C95.2,60.773,95.228,60.847,95.216,60.911Z" transform="translate(-43.102 -45.453)"/><path class="b" d="M52.4,2.536H32.842V0H51.615Z" transform="translate(0)"/><g transform="translate(38.784 22.68)"><path class="c" d="M95.518,227.424a1.613,1.613,0,0,1-.476,1.247,1.921,1.921,0,0,1-1.353.44h-.366v1.6h-1.3v-4.817h1.667a2.038,2.038,0,0,1,1.371.4A1.422,1.422,0,0,1,95.518,227.424Zm-2.194.626h.237a.648.648,0,0,0,.466-.165.6.6,0,0,0,.173-.455q0-.488-.54-.488h-.336Z" transform="translate(-92.022 -225.892)"/><path class="c" d="M138.577,228.2a2.489,2.489,0,0,1-.664,1.858,2.55,2.55,0,0,1-1.867.652h-1.559v-4.817h1.667a2.515,2.515,0,0,1,1.791.593A2.239,2.239,0,0,1,138.577,228.2Zm-1.351.046a1.531,1.531,0,0,0-.262-.982.969.969,0,0,0-.8-.32h-.379v2.7h.29a1.05,1.05,0,0,0,.87-.344A1.664,1.664,0,0,0,137.226,228.245Z" transform="translate(-130.224 -225.892)"/><path class="c" d="M185.095,230.709h-1.282v-4.817h2.847v1.044h-1.565v.919h1.443V228.9h-1.443v1.809Z" transform="translate(-174.597 -225.892)"/></g><path class="d" d="M219.821,5.073h5.073L219.821,0Z" transform="translate(-168.206)"/></g></svg>