<svg xmlns="http://www.w3.org/2000/svg" xmlns:xlink="http://www.w3.org/1999/xlink" width="2560" height="459" viewBox="0 0 2560 459"><defs><style>.a,.f{fill:#fff;}.a,.d{stroke:#707070;}.b{fill:#f2f2f2;}.c{opacity:0.44;clip-path:url(#a);}.d{fill:none;}.d,.e{opacity:0.5;}.e{clip-path:url(#b);}.f{stroke:rgba(0,0,0,0);stroke-miterlimit:10;}</style><clipPath id="a"><rect class="a" width="2559" height="459"/></clipPath><clipPath id="b"><rect width="1249" height="447"/></clipPath></defs><g transform="translate(0 -1724)"><rect class="b" width="2560" height="447" transform="translate(0 1724)"/><g class="c" transform="translate(0 1724)"><line class="d" y1="476.912" x2="1180.841" transform="translate(-409.346 -29.5)"/><line class="d" y1="476.912" x2="1180.841" transform="translate(-370.9 -29.5)"/><line class="d" y1="476.912" x2="1180.841" transform="translate(-332.454 -29.5)"/><line class="d" y1="476.912" x2="1180.841" transform="translate(-294.009 -29.5)"/><line class="d" y1="476.912" x2="1180.841" transform="translate(-255.563 -29.5)"/><line class="d" y1="476.912" x2="1180.841" transform="translate(-217.117 -29.5)"/><line class="d" y1="476.912" x2="1180.841" transform="translate(-178.671 -29.5)"/><line class="d" y1="476.912" x2="1180.841" transform="translate(-140.224 -29.5)"/><line class="d" y1="476.912" x2="1180.841" transform="translate(-101.779 -29.5)"/><line class="d" y1="476.912" x2="1180.841" transform="translate(-63.333 -29.5)"/><line class="d" y1="476.912" x2="1180.841" transform="translate(-24.887 -29.5)"/><line class="d" y1="476.912" x2="1180.841" transform="translate(13.559 -29.5)"/><line class="d" y1="476.912" x2="1180.841" transform="translate(52.005 -29.5)"/><line class="d" y1="476.912" x2="1180.841" transform="translate(90.451 -29.5)"/><line class="d" y1="476.912" x2="1180.841" transform="translate(128.897 -29.5)"/><line class="d" y1="476.912" x2="1180.841" transform="translate(167.343 -29.5)"/><line class="d" y1="476.912" x2="1180.841" transform="translate(205.789 -29.5)"/><line class="d" y1="476.912" x2="1180.841" transform="translate(-432.373 -29.5)"/><line class="d" y1="476.912" x2="1180.841" transform="translate(-415.027 -29.5)"/><line class="d" y1="476.912" x2="1180.841" transform="translate(-397.68 -29.5)"/><line class="d" y1="476.912" x2="1180.841" transform="translate(-380.334 -29.5)"/><line class="d" y1="476.912" x2="1180.841" transform="translate(-362.988 -29.5)"/><line class="d" y1="476.912" x2="1180.841" transform="translate(-345.641 -29.5)"/><line class="d" y1="476.912" x2="1180.841" transform="translate(-328.295 -29.5)"/><line class="d" y1="476.912" x2="1180.841" transform="translate(-310.949 -29.5)"/><line class="d" y1="476.912" x2="1180.841" transform="translate(-293.602 -29.5)"/><line class="d" y1="476.912" x2="1180.841" transform="translate(-276.256 -29.5)"/><line class="d" y1="476.912" x2="1180.841" transform="translate(-258.91 -29.5)"/><line class="d" y1="476.912" x2="1180.841" transform="translate(-241.563 -29.428)"/><line class="d" y1="476.912" x2="1180.841" transform="translate(-224.217 -29.428)"/><line class="d" y1="476.912" x2="1180.841" transform="translate(-206.871 -29.428)"/><line class="d" y1="476.912" x2="1180.841" transform="translate(-189.524 -29.428)"/><line class="d" y1="476.912" x2="1180.841" transform="translate(-172.178 -29.428)"/><line class="d" y1="476.912" x2="1180.841" transform="translate(-154.831 -29.428)"/><line class="d" y1="476.912" x2="1180.841" transform="translate(-137.485 -29.428)"/><line class="d" y1="476.912" x2="1180.841" transform="translate(-120.139 -29.428)"/><line class="d" y1="476.912" x2="1180.841" transform="translate(-102.792 -29.428)"/><line class="d" y1="476.912" x2="1180.841" transform="translate(-85.446 -29.428)"/><line class="d" y1="476.912" x2="1180.841" transform="translate(-68.1 -29.428)"/><line class="d" y1="476.912" x2="1180.841" transform="translate(-50.753 -29.428)"/><line class="d" y1="476.912" x2="1180.841" transform="translate(-33.407 -29.428)"/><line class="d" y1="476.912" x2="1180.841" transform="translate(-16.061 -29.428)"/><line class="d" y1="476.912" x2="1180.841" transform="translate(1.286 -29.428)"/><line class="d" y1="476.912" x2="1180.841" transform="translate(18.632 -29.428)"/><line class="d" y1="476.912" x2="1180.841" transform="translate(35.978 -29.428)"/><line class="d" y1="476.912" x2="1180.841" transform="translate(53.325 -29.428)"/><line class="d" y1="476.912" x2="1180.841" transform="translate(70.671 -29.428)"/><line class="d" y1="476.912" x2="1180.841" transform="translate(88.018 -29.428)"/><line class="d" y1="476.912" x2="1180.841" transform="translate(105.364 -29.428)"/><line class="d" y1="476.912" x2="1180.841" transform="translate(122.71 -29.428)"/><line class="d" y1="476.912" x2="1180.841" transform="translate(140.056 -29.428)"/><line class="d" y1="476.912" x2="1180.841" transform="translate(157.403 -29.428)"/><line class="d" y1="476.912" x2="1180.841" transform="translate(174.749 -29.428)"/><line class="d" y1="476.912" x2="1180.841" transform="translate(192.096 -29.428)"/><line class="d" y1="476.912" x2="1180.841" transform="translate(209.442 -29.428)"/><line class="d" y1="476.912" x2="1180.841" transform="translate(226.788 -29.428)"/><line class="d" y1="476.912" x2="1180.841" transform="translate(244.135 -29.428)"/><line class="d" y1="476.912" x2="1180.841" transform="translate(261.481 -29.428)"/><line class="d" y1="476.912" x2="1180.841" transform="translate(278.827 -29.428)"/><line class="d" y1="476.912" x2="1180.841" transform="translate(296.174 -29.428)"/><line class="d" y1="476.912" x2="1180.841" transform="translate(313.52 -29.428)"/><line class="d" y1="476.912" x2="1180.841" transform="translate(330.866 -29.428)"/><line class="d" y1="476.912" x2="1180.841" transform="translate(348.213 -29.428)"/><line class="d" y1="476.912" x2="1180.841" transform="translate(365.559 -29.428)"/><line class="d" y1="476.912" x2="1180.841" transform="translate(382.905 -29.428)"/><line class="d" y1="476.912" x2="1180.841" transform="translate(400.252 -29.428)"/><line class="d" y1="476.912" x2="1180.841" transform="translate(417.598 -29.428)"/><line class="d" y1="476.912" x2="1180.841" transform="translate(434.944 -29.428)"/><line class="d" y1="476.912" x2="1180.841" transform="translate(452.291 -29.428)"/><line class="d" y1="476.912" x2="1180.841" transform="translate(469.637 -29.428)"/><line class="d" y1="476.912" x2="1180.841" transform="translate(486.984 -29.428)"/><line class="d" y1="476.912" x2="1180.841" transform="translate(504.33 -29.428)"/><line class="d" y1="476.912" x2="1180.841" transform="translate(521.676 -29.428)"/><line class="d" y1="476.912" x2="1180.841" transform="translate(539.023 -29.428)"/><line class="d" y1="476.912" x2="1180.841" transform="translate(556.369 -29.428)"/><line class="d" y1="476.912" x2="1180.841" transform="translate(573.715 -29.428)"/><line class="d" y1="476.912" x2="1180.841" transform="translate(591.062 -29.428)"/><line class="d" y1="476.912" x2="1180.841" transform="translate(608.408 -29.428)"/><line class="d" y1="476.912" x2="1180.841" transform="translate(625.754 -29.428)"/><line class="d" y1="476.912" x2="1180.841" transform="translate(643.101 -29.428)"/><line class="d" y1="476.912" x2="1180.841" transform="translate(660.447 -29.428)"/><line class="d" y1="476.912" x2="1180.841" transform="translate(677.793 -29.428)"/><line class="d" y1="476.912" x2="1180.841" transform="translate(695.14 -29.428)"/><line class="d" y1="476.912" x2="1180.841" transform="translate(712.486 -29.428)"/><line class="d" y1="476.912" x2="1180.841" transform="translate(729.833 -29.428)"/><line class="d" y1="476.912" x2="1180.841" transform="translate(747.179 -29.428)"/><line class="d" y1="476.912" x2="1180.841" transform="translate(764.525 -29.428)"/><line class="d" y1="476.912" x2="1180.841" transform="translate(781.871 -29.428)"/><line class="d" y1="476.912" x2="1180.841" transform="translate(799.218 -29.5)"/><line class="d" y1="476.912" x2="1180.841" transform="translate(816.564 -29.5)"/><line class="d" y1="476.912" x2="1180.841" transform="translate(833.911 -29.5)"/><line class="d" y1="476.912" x2="1180.841" transform="translate(851.257 -29.5)"/><line class="d" y1="476.912" x2="1180.841" transform="translate(868.603 -29.5)"/><line class="d" y1="476.912" x2="1180.841" transform="translate(885.95 -29.5)"/><line class="d" y1="476.912" x2="1180.841" transform="translate(903.296 -29.5)"/><line class="d" y1="476.912" x2="1180.841" transform="translate(920.642 -29.5)"/><line class="d" y1="476.912" x2="1180.841" transform="translate(937.989 -29.5)"/><line class="d" y1="476.912" x2="1180.841" transform="translate(955.335 -29.5)"/><line class="d" y1="476.912" x2="1180.841" transform="translate(972.681 -29.5)"/><line class="d" y1="476.912" x2="1180.841" transform="translate(990.028 -29.5)"/><line class="d" y1="476.912" x2="1180.841" transform="translate(1007.374 -29.5)"/><line class="d" y1="476.912" x2="1180.841" transform="translate(1024.72 -29.5)"/><line class="d" y1="476.912" x2="1180.841" transform="translate(1042.067 -29.5)"/><line class="d" y1="476.912" x2="1180.841" transform="translate(1059.413 -29.5)"/><line class="d" y1="476.912" x2="1180.841" transform="translate(1076.759 -29.5)"/><line class="d" y1="476.912" x2="1180.841" transform="translate(1094.106 -29.5)"/><line class="d" y1="476.912" x2="1180.841" transform="translate(1111.452 -29.5)"/><line class="d" y1="476.912" x2="1180.841" transform="translate(1128.798 -29.5)"/><line class="d" y1="476.912" x2="1180.841" transform="translate(1146.145 -29.5)"/><line class="d" y1="476.912" x2="1180.841" transform="translate(1163.491 -29.5)"/><line class="d" y1="476.912" x2="1180.841" transform="translate(1180.838 -29.5)"/><line class="d" y1="476.912" x2="1180.841" transform="translate(1198.184 -29.5)"/><line class="d" y1="476.912" x2="1180.841" transform="translate(1215.53 -29.5)"/><line class="d" y1="476.912" x2="1180.841" transform="translate(1232.877 -29.5)"/><line class="d" y1="476.912" x2="1180.841" transform="translate(1250.223 -29.5)"/><line class="d" y1="476.912" x2="1180.841" transform="translate(1267.569 -29.5)"/><line class="d" y1="476.912" x2="1180.841" transform="translate(1284.916 -29.5)"/><line class="d" y1="476.912" x2="1180.841" transform="translate(1302.262 -29.5)"/><line class="d" y1="476.912" x2="1180.841" transform="translate(1319.608 -29.5)"/><line class="d" y1="476.912" x2="1180.841" transform="translate(1336.955 -29.5)"/><line class="d" y1="476.912" x2="1180.841" transform="translate(1354.301 -29.5)"/><line class="d" y1="476.912" x2="1180.841" transform="translate(1371.647 -29.5)"/><line class="d" y1="476.912" x2="1180.841" transform="translate(1388.994 -29.5)"/><line class="d" y1="476.912" x2="1180.841" transform="translate(1406.34 -29.5)"/><line class="d" y1="476.912" x2="1180.841" transform="translate(1423.686 -29.5)"/><line class="d" y1="476.912" x2="1180.841" transform="translate(1441.033 -29.5)"/><line class="d" y1="476.912" x2="1180.841" transform="translate(1458.379 -29.5)"/><line class="d" y1="476.912" x2="1180.841" transform="translate(1475.725 -29.5)"/><line class="d" y1="476.912" x2="1180.841" transform="translate(1493.072 -29.5)"/><line class="d" y1="476.912" x2="1180.841" transform="translate(1510.418 -29.5)"/><line class="d" y1="476.912" x2="1180.841" transform="translate(1527.765 -29.5)"/><line class="d" y1="476.912" x2="1180.841" transform="translate(1545.111 -29.5)"/><line class="d" y1="476.912" x2="1180.841" transform="translate(1562.457 -29.5)"/><line class="d" y1="476.912" x2="1180.841" transform="translate(1579.803 -29.5)"/><line class="d" y1="476.912" x2="1180.841" transform="translate(1597.15 -29.5)"/><line class="d" y1="476.912" x2="1180.841" transform="translate(1115.105 -29.5)"/><line class="d" y1="476.912" x2="1180.841" transform="translate(1153.551 -29.5)"/><line class="d" y1="476.912" x2="1180.841" transform="translate(1191.997 -29.5)"/><line class="d" y1="476.912" x2="1180.841" transform="translate(1230.443 -29.5)"/><line class="d" y1="476.912" x2="1180.841" transform="translate(1268.889 -29.5)"/><line class="d" y1="476.912" x2="1180.841" transform="translate(1307.334 -29.5)"/><line class="d" y1="476.912" x2="1180.841" transform="translate(1345.78 -29.5)"/><line class="d" y1="476.912" x2="1180.841" transform="translate(1384.227 -29.5)"/><line class="d" y1="476.912" x2="1180.841" transform="translate(1422.673 -29.5)"/><line class="d" y1="476.912" x2="1180.841" transform="translate(1461.119 -29.5)"/><line class="d" y1="476.912" x2="1180.841" transform="translate(1499.565 -29.5)"/><line class="d" y1="476.912" x2="1180.841" transform="translate(1538.01 -29.5)"/><line class="d" y1="476.912" x2="1180.841" transform="translate(1576.457 -29.5)"/></g><g class="e" transform="translate(1311 1724)"><path class="f" d="M127.8,717.248C59.114,692.38,28.036,641.3,19.993,625.922A157.377,157.377,0,0,1,9.205,496.237C35.223,422.406,113.34,363.919,241.389,322.4c108.535-35.193,275.585-43.36,497.6-24.434C932.172,155.978,1110.117,15.861,1113.372,13.291a61.536,61.536,0,1,1,76.523,96.39c-10.731,8.464-126.248,99.42-270.947,207.986,142.35,18.715,246.267,39.342,251.144,40.316a61.5,61.5,0,0,1-24.368,120.571c-1.3-.259-131.9-26.159-296.749-45.69q-38.348-4.544-74.8-8.146C619.411,537.293,459.61,646.823,369.158,689.474c-58.323,27.512-112.417,41.3-161.686,41.3A232.332,232.332,0,0,1,127.8,717.248ZM279.46,439.328c-119.174,38.641-146.819,79.868-153.169,95.8-5.531,13.863-1.7,24.51.032,28.174,2.64,3.389,1.973,2.453,3.67,6.743,6.015,10.7,48.432,73.392,186.477,8.3,60.473-28.514,157.944-92,264.268-166.523q-28.55-.82-55.259-.82C420.752,410.995,337.678,420.451,279.46,439.328Zm-95.653,109.7A45.452,45.452,0,1,1,227,580.317,45.318,45.318,0,0,1,183.807,549.024Z" transform="translate(56.833 -94.746)"/></g></g></svg>