<svg xmlns="http://www.w3.org/2000/svg" width="34.242" height="47.283" viewBox="0 0 34.242 47.283">
  <g id="holerite" transform="translate(1 1)">
    <path id="Path_644" data-name="Path 644" d="M882.912,657.116l-7.132-7.106-14.49,14.2h21.622v-7.1" transform="translate(-856.822 -650.01)" fill="#fff" stroke="#0aab60" stroke-linecap="round" stroke-linejoin="round" stroke-width="2"/>
    <path id="Path_645" data-name="Path 645" d="M890.136,665.165l-4.442-7.965L871.1,665.113Z" transform="translate(-858.12 -650.962)" fill="#fff" stroke="#0aab60" stroke-linecap="round" stroke-linejoin="round" stroke-width="2"/>
    <path id="Path_646" data-name="Path 646" d="M856.14,668.063a.439.439,0,0,1,.443-.443h31.357a.439.439,0,0,1,.443.443v29.118a.444.444,0,0,1-.443.443H856.583a.444.444,0,0,1-.443-.443Z" transform="translate(-856.14 -652.341)" fill="#fff" stroke="#0aab60" stroke-linecap="round" stroke-linejoin="round" stroke-width="2"/>
    <path id="Path_647" data-name="Path 647" d="M885.564,689.984a5,5,0,1,1,0-10" transform="translate(-859.369 -653.977)" fill="none" stroke="#0aab60" stroke-linecap="round" stroke-linejoin="round" stroke-width="2"/>
    <path id="Path_648" data-name="Path 648" d="M887.865,685.463a1.818,1.818,0,1,1-1.813-1.813A1.813,1.813,0,0,1,887.865,685.463Z" transform="translate(-859.858 -654.462)" fill="#0aab60" stroke="rgba(0,0,0,0)" stroke-miterlimit="10" stroke-width="1"/>
  </g>
</svg>
